<svg xmlns="http://www.w3.org/2000/svg" xmlns:xlink="http://www.w3.org/1999/xlink" viewBox="3.00 8.50 120.62 35.38" width="120.62" height="35.38" role="img" aria-label="Redestina" xmlns:c2pa="http://c2pa.org/manifest"><metadata><c2pa:manifest>AAAWgmp1bWIAAAAeanVtZGMycGEAEQAQgAAAqgA4m3EDYzJwYQAAABZcanVtYgAAAEdqdW1kYzJtYQARABCAAACqADibcQN1cm46YzJwYTphZDkwYTZlNy01NjdhLTQ4YmYtOWJhZi1hNTg5NjY1ODAzNWQAAAADl2p1bWIAAAApanVtZGMyYXMAEQAQgAAAqgA4m3EDYzJwYS5hc3NlcnRpb25zAAAAALxqdW1iAAAARGp1bWRjYm9yABEAEIAAAKoAOJtxE2MycGEuaW5ncmVkaWVudC52MwAAAAAYYzJzaC+kCpEfQO9H3+VVs1p2C5QAAABwY2JvcqNpZGM6Zm9ybWF0bWltYWdlL3N2Zyt4bWxqaW5zdGFuY2VJRHgseG1wOmlpZDpiZjY0ZGY4Ny1lYTM0LTQ0NmUtYWNkNC0wZTYwODI4NGU5ODJscmVsYXRpb25zaGlwaHBhcmVudE9mAAAB4mp1bWIAAABBanVtZGNib3IAEQAQgAAAqgA4m3ETYzJwYS5hY3Rpb25zLnYyAAAAABhjMnNoR6PiY8D5D6fB4wvlqH7RfAAAAZljYm9yomdhY3Rpb25zgqJmYWN0aW9ua2MycGEub3BlbmVkanBhcmFtZXRlcnOha2luZ3JlZGllbnRzgaJjdXJseC1zZWxmI2p1bWJmPWMycGEuYXNzZXJ0aW9ucy9jMnBhLmluZ3JlZGllbnQudjNkaGFzaFggmiN5AxOySGstUnjl5yFgY+NR9v3NoAAszfGiVdA2S0KkZmFjdGlvbngdY29tLmFudGhyb3BpYy5jbGF1ZGUucHJvdmlkZWRqcGFyYW1ldGVyc6F4H2NvbS5hbnRocm9waWMub3JpZ2luLWNvbmZpZGVuY2VndW5rbm93bmtkZXNjcmlwdGlvbnhmQ2xhdWRlIHByb3ZpZGVkIHRoaXMgZmlsZSBhdCB0aGUgcmVxdWVzdCBvZiBhIHVzZXIgYW5kIG1heSBoYXZlIGNyZWF0ZWQgb3IgbW9kaWZpZWQgdGhlIGZpbGUgY29udGVudHMubXNvZnR3YXJlQWdlbnShZG5hbWVmQ2xhdWRlcmFsbEFjdGlvbnNJbmNsdWRlZPUAAADIanVtYgAAAEBqdW1kY2JvcgARABCAAACqADibcRNjMnBhLmhhc2guZGF0YQAAAAAYYzJzaAiX3c0eLNyech4EJHwsrfYAAACAY2JvcqVjYWxnZnNoYTI1NmNwYWRNAAAAAAAAAAAAAAAAAGRoYXNoWCCtiJZ+R10QdLuFhuGJ/Y/xKjVtxDSc56sVXA1yfNVLCWRuYW1lbmp1bWJmIG1hbmlmZXN0amV4Y2x1c2lvbnOBomVzdGFydBjzZmxlbmd0aBkeBAAAAj5qdW1iAAAAJ2p1bWRjMmNsABEAEIAAAKoAOJtxA2MycGEuY2xhaW0udjIAAAACD2Nib3KlY2FsZ2ZzaGEyNTZpc2lnbmF0dXJleE1zZWxmI2p1bWJmPS9jMnBhL3VybjpjMnBhOmFkOTBhNmU3LTU2N2EtNDhiZi05YmFmLWE1ODk2NjU4MDM1ZC9jMnBhLnNpZ25hdHVyZWppbnN0YW5jZUlEeCx4bXA6aWlkOjZhZWJiNTgzLTYxNTEtNDljYS1hNmYzLTRkYTZkY2Q1YThmNXJjcmVhdGVkX2Fzc2VydGlvbnODomN1cmx4LXNlbGYjanVtYmY9YzJwYS5hc3NlcnRpb25zL2MycGEuaW5ncmVkaWVudC52M2RoYXNoWCCaI3kDE7JIay1SeOXnIWBj41H2/c2gACzN8aJV0DZLQqJjdXJseCpzZWxmI2p1bWJmPWMycGEuYXNzZXJ0aW9ucy9jMnBhLmFjdGlvbnMudjJkaGFzaFggTB/rbimA3VmlkcvPrRCvJCcq2DDM4pyXfgbUhSONUZuiY3VybHgpc2VsZiNqdW1iZj1jMnBhLmFzc2VydGlvbnMvYzJwYS5oYXNoLmRhdGFkaGFzaFggxr6NsgeSEWIyqGEZuhPq4S41etqqDI8PwhUiJV1nCYV0Y2xhaW1fZ2VuZXJhdG9yX2luZm+jZG5hbWVvQW50aHJvcGljIEZpbGVzZ3ZlcnNpb25lMS4wLjBrc3BlY1ZlcnNpb25lMi40LjAAABA4anVtYgAAAChqdW1kYzJjcwARABCAAACqADibcQNjMnBhLnNpZ25hdHVyZQAAABAIY2JvctKEWQISogEmGCFZAgowggIGMIIBjaADAgECAhRA5aAK7sI50L64g/oGQgU9Z1UTADAKBggqhkjOPQQDAzBJMRcwFQYDVQQKEw5BbnRocm9waWMsIFBCQzEuMCwGA1UEAxMlQW50aHJvcGljIENvbnRlbnQgQ3JlZGVudGlhbHMgUm9vdCBDQTAeFw0yNjA4MDcxODQzNTZaFw0yODA4MDYxOTQzNTZaMEQxFzAVBgNVBAoTDkFudGhyb3BpYywgUEJDMSkwJwYDVQQDEyBBbnRocm9waWMgQ2xhdWRlIENvbnRlbnQgU2lnbmluZzBZMBMGByqGSM49AgEGCCqGSM49AwEHA0IABJh6CmvLUBgFFNU0vUKlOVtE6djd17L5SuwX0LemFisBM3dkd/3cyjxFA3Qo5S46fX0/ihY0VZ7mfb9KF703t5OjWDBWMA4GA1UdDwEB/wQEAwIHgDAVBgNVHSUEDjAMBgorBgEEAYPoXgIBMAwGA1UdEwEB/wQCMAAwHwYDVR0jBBgwFoAUzlHiBIFOZFsj+OPEz5o+nMHXXMIwCgYIKoZIzj0EAwMDZwAwZAIwMXMdFJ4BetLLVY7ORuE9noqbbAZOZn/aArXyTwFAZfKrPzxF2vPoJNf1+UCdg1XGAjBwX1zd9WGqYkqmL5SFqw1QySjr1zJfpJM9+1rdDwSPLMOPOjKuiXjoU/pUUeG9RwmhY3BhZFkNngAAAAAAAAAAAAAAAAAAAAAAAAAAAAAAAAAAAAAAAAAAAAAAAAAAAAAAAAAAAAAAAAAAAAAAAAAAAAAAAAAAAAAAAAAAAAAAAAAAAAAAAAAAAAAAAAAAAAAAAAAAAAAAAAAAAAAAAAAAAAAAAAAAAAAAAAAAAAAAAAAAAAAAAAAAAAAAAAAAAAAAAAAAAAAAAAAAAAAAAAAAAAAAAAAAAAAAAAAAAAAAAAAAAAAAAAAAAAAAAAAAAAAAAAAAAAAAAAAAAAAAAAAAAAAAAAAAAAAAAAAAAAAAAAAAAAAAAAAAAAAAAAAAAAAAAAAAAAAAAAAAAAAAAAAAAAAAAAAAAAAAAAAAAAAAAAAAAAAAAAAAAAAAAAAAAAAAAAAAAAAAAAAAAAAAAAAAAAAAAAAAAAAAAAAAAAAAAAAAAAAAAAAAAAAAAAAAAAAAAAAAAAAAAAAAAAAAAAAAAAAAAAAAAAAAAAAAAAAAAAAAAAAAAAAAAAAAAAAAAAAAAAAAAAAAAAAAAAAAAAAAAAAAAAAAAAAAAAAAAAAAAAAAAAAAAAAAAAAAAAAAAAAAAAAAAAAAAAAAAAAAAAAAAAAAAAAAAAAAAAAAAAAAAAAAAAAAAAAAAAAAAAAAAAAAAAAAAAAAAAAAAAAAAAAAAAAAAAAAAAAAAAAAAAAAAAAAAAAAAAAAAAAAAAAAAAAAAAAAAAAAAAAAAAAAAAAAAAAAAAAAAAAAAAAAAAAAAAAAAAAAAAAAAAAAAAAAAAAAAAAAAAAAAAAAAAAAAAAAAAAAAAAAAAAAAAAAAAAAAAAAAAAAAAAAAAAAAAAAAAAAAAAAAAAAAAAAAAAAAAAAAAAAAAAAAAAAAAAAAAAAAAAAAAAAAAAAAAAAAAAAAAAAAAAAAAAAAAAAAAAAAAAAAAAAAAAAAAAAAAAAAAAAAAAAAAAAAAAAAAAAAAAAAAAAAAAAAAAAAAAAAAAAAAAAAAAAAAAAAAAAAAAAAAAAAAAAAAAAAAAAAAAAAAAAAAAAAAAAAAAAAAAAAAAAAAAAAAAAAAAAAAAAAAAAAAAAAAAAAAAAAAAAAAAAAAAAAAAAAAAAAAAAAAAAAAAAAAAAAAAAAAAAAAAAAAAAAAAAAAAAAAAAAAAAAAAAAAAAAAAAAAAAAAAAAAAAAAAAAAAAAAAAAAAAAAAAAAAAAAAAAAAAAAAAAAAAAAAAAAAAAAAAAAAAAAAAAAAAAAAAAAAAAAAAAAAAAAAAAAAAAAAAAAAAAAAAAAAAAAAAAAAAAAAAAAAAAAAAAAAAAAAAAAAAAAAAAAAAAAAAAAAAAAAAAAAAAAAAAAAAAAAAAAAAAAAAAAAAAAAAAAAAAAAAAAAAAAAAAAAAAAAAAAAAAAAAAAAAAAAAAAAAAAAAAAAAAAAAAAAAAAAAAAAAAAAAAAAAAAAAAAAAAAAAAAAAAAAAAAAAAAAAAAAAAAAAAAAAAAAAAAAAAAAAAAAAAAAAAAAAAAAAAAAAAAAAAAAAAAAAAAAAAAAAAAAAAAAAAAAAAAAAAAAAAAAAAAAAAAAAAAAAAAAAAAAAAAAAAAAAAAAAAAAAAAAAAAAAAAAAAAAAAAAAAAAAAAAAAAAAAAAAAAAAAAAAAAAAAAAAAAAAAAAAAAAAAAAAAAAAAAAAAAAAAAAAAAAAAAAAAAAAAAAAAAAAAAAAAAAAAAAAAAAAAAAAAAAAAAAAAAAAAAAAAAAAAAAAAAAAAAAAAAAAAAAAAAAAAAAAAAAAAAAAAAAAAAAAAAAAAAAAAAAAAAAAAAAAAAAAAAAAAAAAAAAAAAAAAAAAAAAAAAAAAAAAAAAAAAAAAAAAAAAAAAAAAAAAAAAAAAAAAAAAAAAAAAAAAAAAAAAAAAAAAAAAAAAAAAAAAAAAAAAAAAAAAAAAAAAAAAAAAAAAAAAAAAAAAAAAAAAAAAAAAAAAAAAAAAAAAAAAAAAAAAAAAAAAAAAAAAAAAAAAAAAAAAAAAAAAAAAAAAAAAAAAAAAAAAAAAAAAAAAAAAAAAAAAAAAAAAAAAAAAAAAAAAAAAAAAAAAAAAAAAAAAAAAAAAAAAAAAAAAAAAAAAAAAAAAAAAAAAAAAAAAAAAAAAAAAAAAAAAAAAAAAAAAAAAAAAAAAAAAAAAAAAAAAAAAAAAAAAAAAAAAAAAAAAAAAAAAAAAAAAAAAAAAAAAAAAAAAAAAAAAAAAAAAAAAAAAAAAAAAAAAAAAAAAAAAAAAAAAAAAAAAAAAAAAAAAAAAAAAAAAAAAAAAAAAAAAAAAAAAAAAAAAAAAAAAAAAAAAAAAAAAAAAAAAAAAAAAAAAAAAAAAAAAAAAAAAAAAAAAAAAAAAAAAAAAAAAAAAAAAAAAAAAAAAAAAAAAAAAAAAAAAAAAAAAAAAAAAAAAAAAAAAAAAAAAAAAAAAAAAAAAAAAAAAAAAAAAAAAAAAAAAAAAAAAAAAAAAAAAAAAAAAAAAAAAAAAAAAAAAAAAAAAAAAAAAAAAAAAAAAAAAAAAAAAAAAAAAAAAAAAAAAAAAAAAAAAAAAAAAAAAAAAAAAAAAAAAAAAAAAAAAAAAAAAAAAAAAAAAAAAAAAAAAAAAAAAAAAAAAAAAAAAAAAAAAAAAAAAAAAAAAAAAAAAAAAAAAAAAAAAAAAAAAAAAAAAAAAAAAAAAAAAAAAAAAAAAAAAAAAAAAAAAAAAAAAAAAAAAAAAAAAAAAAAAAAAAAAAAAAAAAAAAAAAAAAAAAAAAAAAAAAAAAAAAAAAAAAAAAAAAAAAAAAAAAAAAAAAAAAAAAAAAAAAAAAAAAAAAAAAAAAAAAAAAAAAAAAAAAAAAAAAAAAAAAAAAAAAAAAAAAAAAAAAAAAAAAAAAAAAAAAAAAAAAAAAAAAAAAAAAAAAAAAAAAAAAAAAAAAAAAAAAAAAAAAAAAAAAAAAAAAAAAAAAAAAAAAAAAAAAAAAAAAAAAAAAAAAAAAAAAAAAAAAAAAAAAAAAAAAAAAAAAAAAAAAAAAAAAAAAAAAAAAAAAAAAAAAAAAAAAAAAAAAAAAAAAAAAAAAAAAAAAAAAAAAAAAAAAAAAAAAAAAAAAAAAAAAAAAAAAAAAAAAAAAAAAAAAAAAAAAAAAAAAAAAAAAAAAAAAAAAAAAAAAAAAAAAAAAAAAAAAAAAAAAAAAAAAAAAAAAAAAAAAAAAAAAAAAAAAAAAAAAAAAAAAAAAAAAAAAAAAAAAAAAAAAAAAAAAAAAAAAAAAAAAAAAAAAAAAAAAAAAAAAAAAAAAAAAAAAAAAAAAAAAAAAAAAAAAAAAAAAAAAAAAAAAAAAAAAAAAAAAAAAAAAAAAAAAAAAAAAAAAAAAAAAAAAAAAAAAAAAAAAAAAAAAAAAAAAAAAAAAAAAAAAAAAAAAAAAAAAAAAAAAAAAAAAAAAAAAAAAAAAAAAAAAAAAAAAAAAAAAAAAAAAAAAAAAAAAAAAAAAAAAAAAAAAAAAAAAAAAAAAAAAAAAAAAAAAAAAAAAAAAAAAAAAAAAAAAAAAAAAAAAAAAAAAAAAAAAAAAAAAAAAAAAAAAAAAAAAAAAAAAAAAAAAAAAAAAAAAAAAAAAAAAAAAAAAAAAAAAAAAAAAAAAAAAAAAAAAAAAAAAAAAAAAAAAAAAAAAAAAAAAAAAAAAAAAAAAAAAAAAAAAAAAAAAAAAAAAAAAAAAAAAAAAAAAAAAAAAAAAAAAAAAAAAAAAAAAAAAAAAAAAAAAAAAAAAAAAAAAAAAAAAAAAAAAAAAAAAAAAAAAAAAAAAAAAAAAAAAAAAAAAAAAAAAAAAAAAAAAAAAAAAAAAAAAAAAAAAAAAAAAAAAAAAAAAAAAAAAAAAAAAAAAAAAAAAAAAAAAAAAAAAAAAAAAAAAAAAAAAAAAAAAAAAAAAAAAAAAAAAAAAAAAAAAAAAAAAAAAAAAAAAAAAAAAAAAAAAAAAAAAAAAAAAAAAAAAAAAAAAAAAAAAAAAAAAAAAAAAAAAAAAAAAAAAAAAAAAAAAAAAAAAAAAAAAAAAAAAAAAAAAAAAAAAAAAAAAAAAAAAAAAAAAAAAAAAAAAAAAAAAAAAAAAAAAAAAAAAAAAAAAAAAAAAAAAAAAAAAAAAAAAAAAAAAAAAAAAAAAAAAAAAAAAAAAAAAAAAAAAAAAAAAAAAAAAAAAAAAAAAAAAAAAAAAAAAAAAAAAAAAAAAAAAAAAAAAAAAAAAAAAAAAAAAAAAAAAAAAAAAAAAAAAAAAAAAAAAAAAAAAAAAAAAAAAAAAAAAAAAAAAAAAAAAAAAAAAAAAAAAAAAAAAAAAAAAAAAAAAAAAAAAAAAAAAAAAAAAAAAAAAAAAAAAAAAAAAAAAAAAAAAAAAAAAAAAAAAAAAAAAAAAAAAAAAAAAAAAAAAAAAAAAAAAAAAAAAAAAAAAAAAAAAAAAAAAAAAAAAAAAAAAAAAAAAAAAAAAAAAAAAAAAAAAAAAAAAAAAAAAAAAAAAAAAAAAAAAAAAAAAAAAAAAAAAAAAAAAAAAAAAAAAAAAAAAAAAAAAAAAAAAAAAAAAAAAAAAAAAAAAAAAAAAAAAAAAAAAAAAAAAAAAAAAAAAAAAAAAAAAAAAAAAAAAAAAAAAAAAAAAAAAAAAAAAAAAAAAAAAAAAAAAAAAAAAAAAAAAAAAAAAAAAAAAAAAAAAAAAAAAAAAPZYQKHbDRC0dE4P54ilEkwoiDu34p2MeC6aRICuzkU3oncM7daJwYuPKz8U5Xh1PMpWAjEOdY6P1sxfrF/jotCmdFc=</c2pa:manifest></metadata>
<title>Redestina</title>
<defs>
<g>
<g id="glyph-0-0">
<path d="M 3.53125 0.0625 L 3.53125 -2.5 L 5.296875 -2.5 C 5.753906 -2.5 6.164062 -2.5625 6.53125 -2.6875 C 6.90625 -2.820312 7.21875 -3.015625 7.46875 -3.265625 C 7.71875 -3.515625 7.910156 -3.816406 8.046875 -4.171875 C 8.191406 -4.535156 8.265625 -4.941406 8.265625 -5.390625 C 8.265625 -5.867188 8.191406 -6.285156 8.046875 -6.640625 C 7.910156 -6.992188 7.71875 -7.289062 7.46875 -7.53125 C 7.21875 -7.769531 6.90625 -7.953125 6.53125 -8.078125 C 6.164062 -8.203125 5.753906 -8.265625 5.296875 -8.265625 L 3.53125 -8.265625 L 3.53125 -10.828125 L 5.171875 -10.828125 C 6.140625 -10.828125 6.988281 -10.6875 7.71875 -10.40625 C 8.457031 -10.132812 9.070312 -9.753906 9.5625 -9.265625 C 10.050781 -8.785156 10.414062 -8.222656 10.65625 -7.578125 C 10.90625 -6.941406 11.03125 -6.269531 11.03125 -5.5625 L 11.03125 -5.234375 C 11.03125 -4.578125 10.90625 -3.929688 10.65625 -3.296875 C 10.414062 -2.671875 10.050781 -2.101562 9.5625 -1.59375 C 9.070312 -1.09375 8.457031 -0.691406 7.71875 -0.390625 C 6.988281 -0.0859375 6.140625 0.0625 5.171875 0.0625 Z M 1.09375 0.0625 L 1.09375 -10.828125 L 3.828125 -10.828125 L 3.828125 0.0625 Z M 1.09375 0.0625 "/>
</g>
<g id="glyph-0-1">
<path d="M 1.09375 0 L 1.09375 -10.734375 L 3.734375 -10.734375 L 3.734375 0 Z M 3.4375 0 L 3.4375 -2.234375 L 7.96875 -2.234375 L 7.96875 0 Z M 3.4375 -4.34375 L 3.4375 -6.578125 L 7.65625 -6.578125 L 7.65625 -4.34375 Z M 3.4375 -8.5 L 3.4375 -10.734375 L 7.875 -10.734375 L 7.875 -8.5 Z M 3.4375 -8.5 "/>
</g>
<g id="glyph-0-2">
<path d="M 4.90625 0.296875 C 3.90625 0.296875 3.066406 0.140625 2.390625 -0.171875 C 1.710938 -0.484375 1.195312 -0.910156 0.84375 -1.453125 C 0.5 -2.003906 0.328125 -2.632812 0.328125 -3.34375 L 2.96875 -3.34375 C 2.96875 -3.082031 3.035156 -2.847656 3.171875 -2.640625 C 3.316406 -2.429688 3.53125 -2.265625 3.8125 -2.140625 C 4.101562 -2.023438 4.46875 -1.96875 4.90625 -1.96875 C 5.289062 -1.96875 5.617188 -2.015625 5.890625 -2.109375 C 6.160156 -2.210938 6.363281 -2.351562 6.5 -2.53125 C 6.644531 -2.707031 6.71875 -2.914062 6.71875 -3.15625 C 6.71875 -3.46875 6.582031 -3.707031 6.3125 -3.875 C 6.050781 -4.050781 5.609375 -4.164062 4.984375 -4.21875 L 4.296875 -4.28125 C 3.179688 -4.375 2.296875 -4.71875 1.640625 -5.3125 C 0.984375 -5.914062 0.65625 -6.710938 0.65625 -7.703125 C 0.65625 -8.410156 0.816406 -9.015625 1.140625 -9.515625 C 1.472656 -10.015625 1.9375 -10.394531 2.53125 -10.65625 C 3.132812 -10.925781 3.84375 -11.0625 4.65625 -11.0625 C 5.539062 -11.0625 6.289062 -10.910156 6.90625 -10.609375 C 7.519531 -10.316406 7.988281 -9.90625 8.3125 -9.375 C 8.632812 -8.84375 8.796875 -8.222656 8.796875 -7.515625 L 6.140625 -7.515625 C 6.140625 -7.742188 6.082031 -7.957031 5.96875 -8.15625 C 5.851562 -8.351562 5.679688 -8.507812 5.453125 -8.625 C 5.234375 -8.738281 4.96875 -8.796875 4.65625 -8.796875 C 4.363281 -8.796875 4.113281 -8.75 3.90625 -8.65625 C 3.707031 -8.5625 3.554688 -8.429688 3.453125 -8.265625 C 3.359375 -8.097656 3.3125 -7.910156 3.3125 -7.703125 C 3.3125 -7.429688 3.398438 -7.195312 3.578125 -7 C 3.765625 -6.800781 4.09375 -6.679688 4.5625 -6.640625 L 5.25 -6.59375 C 6.050781 -6.519531 6.757812 -6.34375 7.375 -6.0625 C 8 -5.78125 8.484375 -5.398438 8.828125 -4.921875 C 9.179688 -4.441406 9.359375 -3.851562 9.359375 -3.15625 C 9.359375 -2.46875 9.179688 -1.863281 8.828125 -1.34375 C 8.472656 -0.820312 7.960938 -0.414062 7.296875 -0.125 C 6.640625 0.15625 5.84375 0.296875 4.90625 0.296875 Z M 4.90625 0.296875 "/>
</g>
<g id="glyph-0-3">
<path d="M 3.234375 0 L 3.234375 -8.640625 L 5.96875 -8.640625 L 5.96875 0 Z M 0.296875 -8.34375 L 0.296875 -10.734375 L 8.90625 -10.734375 L 8.90625 -8.34375 Z M 0.296875 -8.34375 "/>
</g>
<g id="glyph-0-4">
<path d="M 1.125 0 L 1.125 -10.734375 L 3.859375 -10.734375 L 3.859375 0 Z M 1.125 0 "/>
</g>
<g id="glyph-0-5">
<path d="M 1.09375 0 L 1.09375 -10.734375 L 5.578125 -10.734375 L 9.140625 -2.171875 L 9.65625 -2.171875 L 9.359375 -1.90625 L 9.359375 -10.734375 L 11.921875 -10.734375 L 11.921875 0 L 7.40625 0 L 3.84375 -8.5625 L 3.328125 -8.5625 L 3.609375 -8.828125 L 3.609375 0 Z M 1.09375 0 "/>
</g>
<g id="glyph-0-6">
<path d="M 0.125 0 L 3.5625 -10.734375 L 7.9375 -10.734375 L 11.5 0 L 8.671875 0 L 5.90625 -8.828125 L 6.6875 -8.53125 L 4.75 -8.53125 L 5.546875 -8.828125 L 2.859375 0 Z M 2.921875 -2.484375 L 3.75 -4.71875 L 7.828125 -4.71875 L 8.640625 -2.484375 Z M 2.921875 -2.484375 "/>
</g>
<g id="glyph-0-7">
<path d="M 1.09375 0 L 1.09375 -10.828125 L 3.828125 -10.828125 L 3.828125 0 Z M 7.5625 0 L 4.546875 -4.5625 L 7.515625 -4.5625 L 10.703125 0 Z M 3.125 -3.296875 L 3.125 -5.390625 L 5.703125 -5.390625 C 6.023438 -5.390625 6.300781 -5.453125 6.53125 -5.578125 C 6.769531 -5.710938 6.957031 -5.894531 7.09375 -6.125 C 7.226562 -6.363281 7.296875 -6.640625 7.296875 -6.953125 C 7.296875 -7.273438 7.226562 -7.550781 7.09375 -7.78125 C 6.957031 -8.019531 6.769531 -8.203125 6.53125 -8.328125 C 6.300781 -8.460938 6.023438 -8.53125 5.703125 -8.53125 L 3.125 -8.53125 L 3.125 -10.828125 L 5.546875 -10.828125 C 6.472656 -10.828125 7.273438 -10.6875 7.953125 -10.40625 C 8.628906 -10.125 9.148438 -9.707031 9.515625 -9.15625 C 9.878906 -8.613281 10.0625 -7.941406 10.0625 -7.140625 L 10.0625 -6.90625 C 10.0625 -6.101562 9.875 -5.4375 9.5 -4.90625 C 9.132812 -4.375 8.613281 -3.972656 7.9375 -3.703125 C 7.269531 -3.429688 6.472656 -3.296875 5.546875 -3.296875 Z M 3.125 -3.296875 "/>
</g>
</g>
</defs>
<g fill="currentColor">
<use xlink:href="#glyph-0-0" x="54.3525" y="34.9635"/>
<use xlink:href="#glyph-0-1" x="65.79758" y="34.9635"/>
</g>
<g fill="currentColor">
<use xlink:href="#glyph-0-2" x="74.447589" y="34.9635"/>
</g>
<g fill="currentColor">
<use xlink:href="#glyph-0-3" x="83.818433" y="34.9635"/>
<use xlink:href="#glyph-0-4" x="93.027456" y="34.9635"/>
<use xlink:href="#glyph-0-5" x="97.99974" y="34.9635"/>
<use xlink:href="#glyph-0-6" x="111.018887" y="34.9635"/>
</g>
<g fill="currentColor">
<use xlink:href="#glyph-0-7" x="2.9141" y="20.4142"/>
<use xlink:href="#glyph-0-1" x="13.800166" y="20.4142"/>
</g>
<path fill="none" stroke-width="2.942" stroke-linecap="square" stroke-linejoin="miter" stroke="currentColor" d="M -0.0002875 0.0002875 C -5.527631 -0.0309625 -12.523725 -0.737994 -16.41435 6.746381 C -19.340131 12.367475 -18.10185 18.10185 -18.10185 18.10185 C -18.10185 18.10185 -3.246381 14.922162 -6.894819 0.336225 C -10.242475 -13.034869 -31.156538 -10.034869 -31.304975 9.054975 " transform="matrix(1, 0, 0, -1, 51.5081, 33.4456)"/>
<path fill-rule="nonzero" fill="currentColor" stroke-width="1.961" stroke-linecap="butt" stroke-linejoin="miter" stroke="currentColor" d="M 0.0006 0.000875 C 0.0006 0.000875 0.28185 -1.546 1.742787 -3.823344 C 3.192006 -6.081156 5.789662 -7.9835 5.789662 -7.9835 " transform="matrix(1, 0, 0, -1, 38.6244, 23.579)"/>
</svg>
