<svg xmlns="http://www.w3.org/2000/svg" viewBox="0 0 64 64" role="img" aria-label="Alfabrega"><path d="M32 58Q33 39 32 20" stroke="#3f7a2e" stroke-width="2.5" fill="none" stroke-linecap="round"/><g transform="translate(32 22) rotate(-60)"><path d="M0 0Q7.5 -8 15 0Q7.5 8 0 0Z" fill="#4f9a3a"/><path d="M1 0L13 0" stroke="#3f7a2e" stroke-width="1" opacity=".5"/></g><g transform="translate(32 22) rotate(-120)"><path d="M0 0Q7.5 -8 15 0Q7.5 8 0 0Z" fill="#4f9a3a"/><path d="M1 0L13 0" stroke="#3f7a2e" stroke-width="1" opacity=".5"/></g><g transform="translate(32 36) rotate(-20)"><path d="M0 0Q9 -9 18 0Q9 9 0 0Z" fill="#5aaa42"/><path d="M1 0L16 0" stroke="#3f7a2e" stroke-width="1" opacity=".5"/></g><g transform="translate(32 36) rotate(200)"><path d="M0 0Q9 -9 18 0Q9 9 0 0Z" fill="#5aaa42"/><path d="M1 0L16 0" stroke="#3f7a2e" stroke-width="1" opacity=".5"/></g><g transform="translate(32 50) rotate(-15)"><path d="M0 0Q8.5 -8 17 0Q8.5 8 0 0Z" fill="#4f9a3a"/><path d="M1 0L15 0" stroke="#3f7a2e" stroke-width="1" opacity=".5"/></g><g transform="translate(32 50) rotate(195)"><path d="M0 0Q8.5 -8 17 0Q8.5 8 0 0Z" fill="#4f9a3a"/><path d="M1 0L15 0" stroke="#3f7a2e" stroke-width="1" opacity=".5"/></g></svg>
