<svg xmlns="http://www.w3.org/2000/svg" viewBox="0 0 64 64" role="img" aria-label="Olives"><path d="M10 14Q33 20 54 26" stroke="#8a5a2b" stroke-width="2.2" fill="none" stroke-linecap="round"/><g transform="translate(20 17) rotate(-30)"><path d="M0 0Q8 -4 16 0Q8 4 0 0Z" fill="#7a8f5a"/><path d="M1 0L14 0" stroke="#3f7a2e" stroke-width="1" opacity=".5"/></g><g transform="translate(38 21) rotate(-40)"><path d="M0 0Q8 -4 16 0Q8 4 0 0Z" fill="#7a8f5a"/><path d="M1 0L14 0" stroke="#3f7a2e" stroke-width="1" opacity=".5"/></g><g transform="translate(30 19) rotate(40)"><path d="M0 0Q7 -4 14 0Q7 4 0 0Z" fill="#8a9e6a"/><path d="M1 0L12 0" stroke="#3f7a2e" stroke-width="1" opacity=".5"/></g><g transform="translate(48 24) rotate(30)"><path d="M0 0Q7 -4 14 0Q7 4 0 0Z" fill="#8a9e6a"/><path d="M1 0L12 0" stroke="#3f7a2e" stroke-width="1" opacity=".5"/></g><ellipse cx="22" cy="34" rx="6" ry="8" fill="#7a8a2a" transform="rotate(-15 22 34)"/><ellipse cx="36" cy="40" rx="6" ry="8" fill="#5f6e20" transform="rotate(10 36 40)"/><ellipse cx="48" cy="36" rx="6" ry="8" fill="#3a2a30" transform="rotate(-10 48 36)"/><ellipse cx="20" cy="31" rx="1.5" ry="2.5" transform="rotate(-15 20 31)" fill="#fff" opacity=".35"/><ellipse cx="34" cy="37" rx="1.5" ry="2.5" transform="rotate(10 34 37)" fill="#fff" opacity=".35"/><ellipse cx="46" cy="33" rx="1.5" ry="2.5" transform="rotate(-10 46 33)" fill="#fff" opacity=".35"/></svg>
